<?xml version="1.0" standalone="no"?>
<!DOCTYPE svg PUBLIC "-//W3C//DTD SVG 20010904//EN"
 "http://www.w3.org/TR/2001/REC-SVG-20010904/DTD/svg10.dtd">
<svg version="1.0" xmlns="http://www.w3.org/2000/svg"
 width="200px" height="200px" viewBox="0 0 1063.000000 1063.000000"
 preserveAspectRatio="xMidYMid meet">

<g transform="translate(0.000000,1063.000000) scale(0.100000,-0.100000)"
fill="#ffff" stroke="none">
<path d="M4700 10219 c-1039 -77 -1998 -517 -2735 -1254 -639 -640 -1064
-1458 -1219 -2351 -90 -516 -86 -1075 10 -1579 210 -1094 810 -2053 1697
-2712 544 -403 1174 -672 1832 -782 288 -48 387 -55 725 -55 334 0 489 12 750
60 1209 220 2254 934 2913 1988 282 452 502 1030 591 1556 50 295 60 423 60
765 0 332 -10 473 -55 735 -289 1719 -1573 3110 -3243 3515 -440 107 -897 146
-1326 114z m-60 -1345 c72 -32 141 -104 162 -167 24 -72 10 -87 -82 -87 -67 0
-85 8 -103 46 -23 47 -70 74 -130 74 -111 0 -140 -43 -145 -220 -6 -208 18
-252 141 -258 63 -3 76 -1 101 19 28 22 56 74 56 104 0 12 -15 15 -80 15 -91
0 -100 7 -100 84 0 73 8 76 185 76 185 0 185 0 185 -100 0 -82 -15 -161 -41
-211 -45 -89 -173 -159 -293 -159 -113 0 -237 54 -283 122 -51 76 -55 98 -51
297 3 180 4 188 30 237 77 146 280 204 448 128z m-1537 20 c9 -3 89 -176 178
-384 136 -318 160 -382 149 -395 -9 -11 -31 -15 -80 -15 -38 0 -75 3 -83 6 -8
3 -28 39 -43 80 l-29 74 -154 -2 -153 -3 -27 -65 c-37 -93 -33 -90 -116 -90
-92 0 -112 14 -91 63 139 331 311 724 320 729 13 9 108 10 129 2z m575 -6 c9
-9 12 -94 12 -320 l0 -308 203 0 c145 0 206 -3 215 -12 7 -7 12 -37 12 -68 0
-31 -5 -61 -12 -68 -9 -9 -89 -12 -300 -12 -274 0 -288 1 -298 19 -6 13 -10
152 -10 385 0 318 2 367 16 380 19 20 144 22 162 4z m1625 6 c9 -3 89 -176
178 -384 136 -318 160 -382 149 -395 -9 -11 -31 -15 -80 -15 -38 0 -75 3 -83
6 -8 3 -28 39 -43 80 l-29 74 -154 -2 -153 -3 -27 -65 c-37 -93 -33 -90 -116
-90 -92 0 -112 14 -91 63 139 331 311 724 320 729 13 9 108 10 129 2z m579
-11 c8 -10 62 -109 119 -220 57 -112 107 -203 110 -203 4 0 55 93 114 208 59
114 112 213 117 220 14 16 140 16 156 0 17 -17 17 -759 0 -776 -7 -7 -40 -12
-78 -12 -38 0 -71 5 -78 12 -8 8 -12 68 -12 203 l0 190 -76 -145 c-41 -79 -80
-148 -87 -152 -15 -10 -99 -10 -113 0 -6 4 -42 67 -80 140 l-69 133 -5 -181
c-4 -146 -8 -183 -20 -190 -26 -16 -137 -12 -154 6 -14 13 -16 62 -16 384 0
322 2 371 16 384 23 23 136 22 156 -1z m1141 11 c9 -3 89 -176 178 -384 136
-318 160 -382 149 -395 -9 -11 -31 -15 -80 -15 -38 0 -75 3 -83 6 -8 3 -28 39
-43 80 l-29 74 -154 -2 -153 -3 -27 -65 c-37 -93 -33 -90 -116 -90 -92 0 -112
14 -91 63 139 331 311 724 320 729 13 9 108 10 129 2z m-5357 -1207 l26 -23
-79 -120 c-241 -365 -360 -720 -420 -1247 -24 -215 -24 -799 0 -1014 60 -527
179 -882 420 -1247 l79 -120 -26 -23 c-15 -13 -30 -23 -34 -23 -10 0 -96 106
-166 203 -251 352 -395 761 -458 1302 -17 146 -17 684 0 830 63 541 207 951
458 1302 70 97 156 203 166 203 4 0 19 -10 34 -23z m6795 -68 c109 -135 192
-267 269 -424 144 -294 223 -578 272 -975 17 -141 17 -719 0 -860 -73 -592
-242 -1028 -541 -1399 -41 -50 -78 -91 -82 -91 -4 0 -20 10 -35 23 l-27 23 55
80 c329 473 468 1006 468 1794 0 788 -139 1321 -468 1794 l-55 80 27 23 c15
13 31 23 35 23 4 0 41 -41 82 -91z m-2303 -1065 c305 -35 619 -121 857 -233
55 -26 175 -91 266 -144 137 -79 177 -98 235 -109 61 -11 77 -19 143 -73 91
-74 111 -100 118 -156 4 -24 19 -61 35 -83 25 -35 28 -47 28 -116 0 -110 -29
-456 -41 -487 -16 -43 -67 -100 -118 -133 -41 -27 -50 -39 -65 -87 -21 -67
-87 -142 -152 -173 -40 -20 -57 -21 -221 -18 -171 3 -180 4 -235 31 -52 25
-102 70 -125 112 -9 15 -83 7 -779 -79 -423 -52 -834 -102 -914 -111 -80 -9
-145 -17 -146 -18 -31 -67 -138 -173 -213 -211 -74 -38 -191 -66 -273 -66
-137 0 -313 60 -395 134 l-40 36 -294 0 c-722 1 -1150 33 -1477 110 -46 11
-103 20 -127 20 -39 0 -43 2 -48 30 -7 30 -6 33 14 85 7 17 13 55 15 85 2 30
11 101 19 158 l15 104 -35 81 c-19 44 -35 90 -35 101 0 12 14 41 30 66 17 25
48 81 70 126 67 138 201 246 397 320 183 69 664 153 1065 185 l143 12 85 47
c356 198 723 348 975 399 151 30 415 61 650 75 111 7 447 -5 573 -20z m-3106
-3524 c43 -168 78 -308 78 -312 0 -5 -18 -8 -39 -8 -39 0 -39 0 -51 53 -7 28
-16 69 -21 90 l-10 38 -72 -3 -71 -3 -21 -85 -21 -85 -41 -3 -40 -3 64 248
c35 136 71 279 80 316 l17 68 35 -3 34 -3 79 -305z m208 50 c0 -247 1 -261 20
-280 23 -23 95 -27 121 -7 36 27 39 52 39 301 l0 246 41 0 41 0 -4 -257 c-4
-288 -10 -316 -70 -353 -25 -15 -50 -20 -105 -20 -63 0 -75 3 -104 27 -56 47
-59 66 -59 348 l0 255 40 0 40 0 0 -260z m680 230 l0 -30 -70 0 -70 0 0 -285
0 -285 -40 0 -40 0 0 285 0 285 -60 0 -60 0 0 30 0 30 170 0 170 0 0 -30z
m331 7 c69 -45 107 -185 95 -350 -8 -105 -35 -182 -76 -222 -24 -23 -41 -30
-88 -33 -136 -10 -194 85 -194 312 0 217 57 315 183 316 31 0 57 -7 80 -23z
m267 -34 c5 -32 20 -124 33 -205 12 -81 24 -146 26 -144 2 2 17 84 34 182 16
99 31 189 34 202 5 19 12 22 60 22 l55 0 0 -315 0 -315 -35 0 -35 0 -2 238 -3
237 -40 -237 -39 -238 -28 0 c-15 0 -28 3 -29 8 0 4 -17 108 -38 232 l-39 225
-1 -232 -1 -233 -35 0 -35 0 0 315 0 315 54 0 54 0 10 -57z m563 34 c69 -45
107 -185 95 -350 -8 -105 -35 -182 -76 -222 -24 -23 -41 -30 -88 -33 -136 -10
-194 85 -194 312 0 217 57 315 183 316 31 0 57 -7 80 -23z m509 -7 l0 -30 -70
0 -70 0 0 -285 0 -285 -40 0 -40 0 0 285 0 285 -60 0 -60 0 0 30 0 30 170 0
170 0 0 -30z m321 7 c69 -45 107 -185 95 -350 -8 -105 -35 -182 -76 -222 -24
-23 -41 -30 -88 -33 -136 -10 -194 85 -194 312 0 217 57 315 183 316 31 0 57
-7 80 -23z m424 0 c47 -26 85 -92 85 -147 -1 -48 -31 -112 -69 -141 l-32 -25
56 -143 c30 -78 55 -144 55 -147 0 -2 -17 -4 -38 -4 l-39 0 -54 145 -54 145
-42 0 -43 0 0 -145 0 -145 -40 0 -40 0 0 315 0 315 108 0 c92 0 113 -3 147
-23z m495 -7 l0 -30 -125 0 -125 0 0 -100 0 -99 113 -3 112 -3 0 -30 0 -30
-112 -3 -113 -3 0 -119 0 -120 130 0 130 0 0 -30 0 -30 -165 0 -165 0 0 315 0
315 160 0 160 0 0 -30z m330 12 c38 -21 67 -70 72 -122 3 -34 2 -35 -34 -38
-36 -3 -38 -2 -38 26 0 46 -34 82 -79 82 -50 0 -83 -34 -83 -85 0 -46 29 -79
136 -150 92 -63 116 -94 116 -153 0 -55 -19 -99 -59 -137 -28 -26 -40 -30
-104 -33 -62 -3 -77 -1 -107 20 -42 28 -82 101 -78 143 3 27 6 30 38 30 34 0
35 -2 41 -43 8 -59 37 -87 93 -87 63 0 96 32 96 93 0 50 -4 55 -136 151 -84
61 -114 103 -114 159 0 121 133 201 240 144z"/>
<path d="M2997 8529 c-21 -55 -37 -103 -34 -105 2 -3 41 -4 85 -2 l80 3 -41
103 c-22 56 -43 102 -46 102 -3 0 -23 -45 -44 -101z"/>
<path d="M5197 8529 c-21 -55 -37 -103 -34 -105 2 -3 41 -4 85 -2 l80 3 -41
103 c-22 56 -43 102 -46 102 -3 0 -23 -45 -44 -101z"/>
<path d="M6917 8529 c-21 -55 -37 -103 -34 -105 2 -3 41 -4 85 -2 l80 3 -41
103 c-22 56 -43 102 -46 102 -3 0 -23 -45 -44 -101z"/>
<path d="M5430 6479 c-123 -10 -433 -49 -439 -55 -2 -2 43 -4 100 -4 120 0
467 -18 548 -28 30 -4 56 -13 58 -19 6 -18 -147 -168 -246 -241 -82 -61 -213
-132 -244 -132 -12 0 -15 -7 -10 -35 4 -23 0 -43 -10 -58 -28 -43 -77 -57
-235 -67 -276 -18 -491 -49 -687 -100 -105 -27 -251 -78 -283 -99 -8 -5 48
-10 140 -14 104 -3 176 -11 226 -24 l72 -19 41 27 c119 78 295 91 424 30 76
-35 174 -128 214 -201 28 -53 19 -45 -33 28 -131 182 -361 239 -564 140 l-62
-31 27 -17 c27 -16 30 -16 93 14 54 25 77 30 135 30 114 -1 220 -51 282 -132
63 -83 108 -284 101 -461 -2 -50 -1 -91 2 -91 3 0 70 7 150 15 80 8 148 15
151 15 17 0 18 73 3 136 -19 80 -23 254 -10 398 l9 98 -74 -6 c-41 -4 -92 -9
-114 -13 -22 -3 -38 -3 -35 0 3 3 37 11 75 16 39 6 85 14 104 17 l34 5 -6 102
c-4 56 -9 125 -12 152 l-6 50 128 134 c296 311 430 385 688 384 211 -1 470
-63 799 -191 108 -42 114 -48 115 -124 1 -41 -3 -49 -30 -69 -53 -37 -107 -46
-392 -65 -180 -12 -276 -22 -274 -29 5 -13 97 -12 465 5 l302 14 -27 30 c-28
31 -28 31 7 -1 l36 -33 129 -1 c72 0 167 -4 213 -7 79 -7 81 -7 60 10 -12 9
-43 19 -68 23 -59 9 -120 37 -281 131 -371 216 -711 323 -1159 363 -133 13
-477 12 -630 0z"/>
<path d="M6217 6257 c-98 -50 -174 -93 -169 -95 10 -3 352 176 352 184 0 6 4
8 -183 -89z"/>
<path d="M4523 6217 c-171 -83 -245 -123 -229 -125 13 -2 125 46 277 118 140
67 256 124 258 126 2 2 -9 4 -25 3 -16 0 -143 -55 -281 -122z"/>
<path d="M6052 6217 c-95 -51 -169 -93 -164 -95 8 -2 336 169 350 183 16 16
-31 -6 -186 -88z"/>
<path d="M4668 6197 c-98 -50 -173 -93 -169 -95 5 -2 90 40 188 92 98 53 174
96 168 96 -5 0 -90 -42 -187 -93z"/>
<path d="M5573 6033 c-17 -3 -24 -16 -36 -66 -7 -34 -10 -66 -5 -71 5 -6 60
-5 147 3 213 19 203 15 235 73 15 27 26 51 24 52 -5 5 -341 13 -365 9z"/>
<path d="M3940 5985 c-25 -8 -101 -19 -170 -25 -354 -30 -780 -96 -915 -142
-135 -46 -250 -107 -330 -177 l-30 -26 25 29 c14 16 56 50 94 77 38 27 66 49
62 49 -3 0 -37 -15 -74 -34 -80 -40 -156 -95 -194 -140 l-27 -31 22 -7 c20 -5
19 -6 -5 -7 -52 -2 -28 -21 26 -21 58 0 106 -13 118 -33 4 -7 8 -7 8 -2 0 24
-22 39 -67 46 l-48 6 47 2 c42 1 50 -3 69 -28 22 -30 22 -30 38 -9 24 29 84
37 292 38 l185 0 29 -30 c38 -40 71 -39 261 4 176 40 284 61 421 80 78 11 119
23 184 54 222 106 549 176 944 202 207 14 206 14 244 46 49 41 41 52 -36 48
-38 -2 -158 -9 -268 -14 -720 -39 -1368 -144 -1694 -275 -47 -19 -87 -33 -89
-31 -6 6 174 79 292 118 224 74 568 151 891 202 l150 23 -110 7 c-259 15 -300
15 -345 1z"/>
<path d="M6080 5938 c-128 -8 -147 -12 -161 -30 -14 -18 -39 -23 -180 -39
-211 -23 -206 -24 -234 7 -22 24 -28 25 -80 19 -41 -6 -55 -11 -51 -21 3 -7
11 -72 17 -143 8 -86 16 -128 23 -125 19 6 640 82 830 101 174 17 178 18 188
43 13 34 1 103 -23 134 -17 22 -29 26 -77 28 l-57 2 48 3 c41 4 47 6 37 19
-14 16 -53 16 -280 2z m168 -35 c-16 -2 -40 -2 -55 0 -16 2 -3 4 27 4 30 0 43
-2 28 -4z"/>
<path d="M6570 5920 c-80 -4 -146 -8 -147 -8 -2 -1 6 -17 17 -34 14 -23 20
-51 20 -92 l0 -59 58 7 c31 3 136 11 233 17 l177 11 53 -26 c52 -24 195 -54
206 -42 3 3 14 34 24 68 9 35 18 56 18 47 1 -9 -6 -38 -14 -65 -8 -27 -15 -50
-15 -50 0 -6 82 17 105 30 41 22 139 21 190 -3 50 -23 99 -74 120 -125 22 -51
13 -57 -10 -6 -50 110 -177 159 -285 109 -25 -12 -65 -27 -89 -33 -43 -12 -43
-12 -76 -101 -76 -212 -143 -330 -219 -389 -53 -40 -134 -75 -215 -91 -130
-28 -962 -134 -1493 -191 l-157 -17 -11 -50 c-6 -28 -8 -52 -5 -55 8 -8 247
19 1089 124 417 52 763 94 767 94 5 0 16 -14 24 -31 15 -28 20 -30 62 -27 28
2 49 9 54 18 4 8 12 67 18 130 13 145 41 253 91 355 74 149 155 234 233 242
54 6 90 -11 140 -66 93 -103 126 -259 96 -452 -6 -39 -9 -72 -7 -75 10 -10 87
69 97 99 6 17 18 137 27 265 15 215 15 235 0 255 -9 12 -26 36 -37 54 -11 18
-29 35 -39 38 -15 5 -60 51 -100 101 -5 7 -51 15 -102 18 -51 4 -128 9 -171
12 -77 6 -79 6 -68 -14 6 -11 10 -36 10 -54 -1 -32 -2 -32 -8 7 -4 22 -10 46
-14 53 -9 13 -369 14 -647 2z"/>
<path d="M7621 5870 c14 -18 35 -40 47 -48 21 -14 22 -13 22 10 0 30 -24 54
-65 64 l-30 7 26 -33z"/>
<path d="M6855 5714 c-16 -2 -110 -8 -208 -15 -98 -6 -180 -16 -183 -21 -3 -5
-10 -74 -16 -153 -8 -127 -7 -161 12 -296 12 -85 22 -155 24 -156 6 -6 279 39
317 52 151 54 229 151 334 419 l44 111 -27 3 c-67 6 -150 25 -184 43 -36 18
-46 19 -113 13z"/>
<path d="M5887 5630 c-262 -26 -479 -49 -482 -51 -2 -3 -7 -88 -11 -190 -6
-155 -4 -202 11 -283 9 -54 15 -111 11 -127 -5 -28 -5 -29 37 -23 23 2 247 27
497 54 250 28 467 53 482 56 22 4 27 10 23 27 -26 123 -37 264 -31 420 l7 167
-33 -1 c-18 -1 -248 -23 -511 -49z"/>
<path d="M4280 5573 c-50 -34 -184 -97 -280 -133 -71 -26 -113 -33 -293 -50
-116 -11 -253 -20 -304 -20 l-93 0 -44 40 c-28 26 -53 40 -70 40 l-28 0 36
-42 c20 -23 36 -47 36 -54 0 -19 -70 -77 -170 -139 l-95 -58 -185 6 c-183 6
-372 27 -420 45 -38 15 -60 45 -80 108 -14 46 -19 54 -24 37 -4 -14 6 -52 30
-110 43 -103 48 -112 93 -130 35 -15 247 -37 469 -49 144 -7 144 -7 116 47 -8
17 -13 33 -10 37 8 7 8 7 53 -78 21 -41 50 -113 63 -158 l25 -84 135 7 c74 3
143 9 152 11 14 4 6 21 -46 97 -81 117 -96 148 -96 192 l0 35 -37 -15 c-21 -9
-58 -29 -83 -46 l-45 -31 53 51 c73 70 159 96 381 117 192 18 234 12 275 -36
41 -49 165 -446 150 -483 -3 -8 -26 -26 -52 -40 l-47 -27 143 0 143 0 18 43
c13 30 20 78 24 167 10 220 64 421 142 523 19 25 64 67 100 93 59 44 64 50 49
61 -10 7 -24 13 -31 13 -21 0 -107 -84 -149 -146 -20 -30 -39 -54 -41 -54 -13
0 50 92 101 147 32 35 57 66 54 68 -2 2 -22 8 -44 13 -34 8 -45 6 -74 -15z"/>
<path d="M3800 5574 c-120 -17 -352 -62 -360 -71 -3 -3 11 -3 30 0 19 3 103
18 186 32 83 14 207 32 275 39 115 13 118 14 49 14 -41 0 -122 -6 -180 -14z"/>
<path d="M7325 5552 c-144 -88 -190 -361 -92 -545 41 -78 83 -109 150 -113
l52 -3 -47 8 c-63 9 -96 35 -133 104 -26 49 -28 59 -15 67 13 8 13 10 -1 10
-21 0 -29 20 -36 96 -7 78 4 174 20 170 7 -1 9 -1 5 1 -11 6 -10 27 3 60 8 22
12 25 20 13 7 -11 8 -8 4 10 -4 18 1 34 15 53 19 24 24 26 39 15 14 -11 14
-11 4 3 -22 27 19 54 82 54 29 0 48 3 42 7 -22 14 -82 8 -112 -10z"/>
<path d="M7412 5520 c0 -14 2 -19 5 -12 2 6 2 18 0 25 -3 6 -5 1 -5 -13z"/>
<path d="M2623 5520 c-12 -5 -26 -17 -32 -28 -10 -19 -9 -19 29 0 35 17 56 19
227 15 103 -2 202 -8 218 -12 l30 -8 -19 22 c-18 20 -27 21 -225 20 -113 0
-216 -4 -228 -9z"/>
<path d="M3964 5493 c-41 -32 -59 -39 -114 -44 l-65 -6 70 -1 c69 -1 71 -1
120 43 61 54 55 58 -11 8z"/>
<path d="M3408 5493 c7 -3 16 -2 19 1 4 3 -2 6 -13 5 -11 0 -14 -3 -6 -6z"/>
<path d="M2548 5353 l-3 -128 -60 -3 c-37 -2 -75 3 -101 13 -42 16 -59 41 -84
125 l-10 35 4 -41 c6 -62 34 -114 70 -129 46 -19 200 -34 419 -41 l192 -5 115
78 c63 43 116 85 118 93 3 20 -65 100 -86 100 -11 0 -7 -9 16 -33 18 -18 32
-43 32 -56 0 -31 -44 -70 -128 -114 l-70 -37 -176 0 c-171 0 -176 1 -190 23
-15 21 -41 201 -32 215 2 4 -2 13 -10 20 -11 10 -14 -8 -16 -115z"/>
<path d="M3648 5440 c-35 -29 -41 -30 -146 -33 -60 -1 -107 -6 -105 -11 3 -5
55 -6 115 -4 l109 5 37 36 c44 45 40 48 -10 7z"/>
<path d="M4498 5446 c-133 -47 -235 -163 -274 -311 -18 -67 -18 -187 1 -260
34 -129 120 -235 234 -289 55 -25 79 -30 141 -31 50 0 91 6 123 19 60 23 57
31 -3 10 -105 -37 -251 0 -337 84 -35 34 -93 112 -93 125 0 1 10 4 23 5 12 1
36 6 52 12 24 7 18 8 -27 4 l-57 -6 -15 51 c-34 117 -31 215 13 332 40 105 41
105 106 -4 32 -54 59 -97 62 -97 4 0 -44 90 -96 182 -15 26 -15 28 24 68 22
23 69 55 105 73 56 28 74 32 140 31 44 -1 94 -8 120 -18 25 -9 40 -13 35 -7
-39 37 -204 53 -277 27z"/>
<path d="M4542 5395 c0 -16 2 -22 5 -12 2 9 2 23 0 30 -3 6 -5 -1 -5 -18z"/>
<path d="M4653 5375 c0 -27 2 -38 4 -22 2 15 2 37 0 50 -2 12 -4 0 -4 -28z"/>
<path d="M4790 5407 c0 -3 12 -12 26 -22 15 -9 23 -12 20 -6 -7 11 -46 35 -46
28z"/>
<path d="M7260 5395 c0 -5 5 -17 10 -25 5 -8 10 -10 10 -5 0 6 -5 17 -10 25
-5 8 -10 11 -10 5z"/>
<path d="M4725 5333 c-21 -32 -32 -53 -24 -46 24 19 81 103 71 103 -5 0 -26
-26 -47 -57z"/>
<path d="M4485 5330 c27 -27 51 -50 53 -50 2 0 -15 23 -38 50 -23 28 -47 50
-53 50 -6 0 11 -22 38 -50z"/>
<path d="M7440 5285 c-14 -8 -20 -14 -14 -15 5 0 19 7 30 15 24 18 16 19 -16
0z"/>
<path d="M7358 5252 c-6 -21 1 -42 13 -42 12 0 12 47 0 54 -5 3 -11 -2 -13
-12z"/>
<path d="M7555 5220 c10 -11 20 -20 23 -20 3 0 -3 9 -13 20 -10 11 -20 20 -23
20 -3 0 3 -9 13 -20z"/>
<path d="M4543 5190 c0 -25 2 -35 4 -22 2 12 2 32 0 45 -2 12 -4 2 -4 -23z"/>
<path d="M3677 5044 c29 -86 53 -167 53 -179 0 -29 -72 -103 -156 -159 l-69
-46 145 0 c143 0 146 1 198 31 29 16 56 37 59 45 7 20 -5 61 -80 263 -33 90
-68 172 -79 183 -13 13 -33 18 -71 18 l-53 0 53 -156z"/>
<path d="M4853 5183 c-12 -2 -24 -11 -27 -19 -5 -12 0 -11 27 2 49 25 49 27 0
17z"/>
<path d="M4280 5171 c0 -8 52 -22 58 -16 2 1 -11 7 -27 13 -17 6 -31 7 -31 3z"/>
<path d="M2300 5150 c0 -5 5 -10 11 -10 5 0 7 5 4 10 -3 6 -8 10 -11 10 -2 0
-4 -4 -4 -10z"/>
<path d="M7491 5134 c0 -11 3 -14 6 -6 3 7 2 16 -1 19 -3 4 -6 -2 -5 -13z"/>
<path d="M4807 5128 c-2 -7 -37 -24 -76 -36 -39 -13 -71 -27 -71 -32 0 -6 24
0 53 11 28 12 62 25 74 29 22 9 38 28 30 36 -2 3 -7 -1 -10 -8z"/>
<path d="M7352 5110 c0 -19 2 -27 5 -17 2 9 2 25 0 35 -3 9 -5 1 -5 -18z"/>
<path d="M4558 5103 c7 -3 16 -2 19 1 4 3 -2 6 -13 5 -11 0 -14 -3 -6 -6z"/>
<path d="M4519 5083 c-13 -16 -12 -17 4 -4 9 7 17 15 17 17 0 8 -8 3 -21 -13z"/>
<path d="M4606 5078 c10 -14 21 -24 23 -22 3 3 -6 15 -18 27 l-24 22 19 -27z"/>
<path d="M2300 5080 c0 -5 5 -10 10 -10 6 0 10 5 10 10 0 6 -4 10 -10 10 -5 0
-10 -4 -10 -10z"/>
<path d="M4860 5059 c0 -6 -7 -9 -15 -5 -32 12 -12 -3 56 -44 39 -23 73 -40
75 -37 3 3 -23 21 -58 40 -61 34 -62 36 -38 46 24 9 24 10 3 10 -13 1 -23 -4
-23 -10z"/>
<path d="M2350 5050 c0 -5 5 -10 10 -10 6 0 10 5 10 10 0 6 -4 10 -10 10 -5 0
-10 -4 -10 -10z"/>
<path d="M2440 5050 c0 -5 5 -10 10 -10 6 0 10 5 10 10 0 6 -4 10 -10 10 -5 0
-10 -4 -10 -10z"/>
<path d="M2530 5050 c0 -5 5 -10 10 -10 6 0 10 5 10 10 0 6 -4 10 -10 10 -5 0
-10 -4 -10 -10z"/>
<path d="M2622 5049 c2 -6 8 -10 13 -10 5 0 11 4 13 10 2 6 -4 11 -13 11 -9 0
-15 -5 -13 -11z"/>
<path d="M4544 5046 c-11 -28 0 -61 21 -61 16 0 20 7 20 35 0 25 -5 36 -18 38
-9 2 -20 -3 -23 -12z"/>
<path d="M2710 5040 c0 -5 6 -10 14 -10 8 0 18 5 21 10 3 6 -3 10 -14 10 -12
0 -21 -4 -21 -10z"/>
<path d="M2800 5040 c0 -5 9 -10 20 -10 11 0 20 5 20 10 0 6 -9 10 -20 10 -11
0 -20 -4 -20 -10z"/>
<path d="M4268 5043 c6 -2 18 -2 25 0 6 3 1 5 -13 5 -14 0 -19 -2 -12 -5z"/>
<path d="M2664 5029 c-10 -17 13 -36 27 -22 12 12 4 33 -11 33 -5 0 -12 -5
-16 -11z"/>
<path d="M2757 5034 c-14 -15 -6 -34 14 -34 14 0 19 5 17 17 -3 18 -20 27 -31
17z"/>
<path d="M2844 5029 c-9 -15 11 -33 30 -26 9 4 13 13 10 22 -7 17 -30 20 -40
4z"/>
<path d="M2946 5033 c-12 -12 -6 -33 9 -33 8 0 15 6 15 14 0 17 -14 28 -24 19z"/>
<path d="M4632 5020 c0 -14 2 -19 5 -12 2 6 2 18 0 25 -3 6 -5 1 -5 -13z"/>
<path d="M2300 5019 c0 -5 5 -7 10 -4 6 3 10 8 10 11 0 2 -4 4 -10 4 -5 0 -10
-5 -10 -11z"/>
<path d="M2485 5020 c-3 -5 1 -10 10 -10 9 0 13 5 10 10 -3 6 -8 10 -10 10 -2
0 -7 -4 -10 -10z"/>
<path d="M2572 5018 c6 -18 28 -21 28 -4 0 9 -7 16 -16 16 -9 0 -14 -5 -12
-12z"/>
<path d="M2803 4994 c-8 -21 13 -42 28 -27 13 13 5 43 -11 43 -6 0 -13 -7 -17
-16z"/>
<path d="M4660 5000 c0 -5 14 -7 33 -3 45 8 47 13 4 13 -20 0 -37 -4 -37 -10z"/>
<path d="M2530 4985 c0 -8 5 -15 10 -15 6 0 10 7 10 15 0 8 -4 15 -10 15 -5 0
-10 -7 -10 -15z"/>
<path d="M2620 4985 c0 -8 7 -15 15 -15 8 0 15 7 15 15 0 8 -7 15 -15 15 -8 0
-15 -7 -15 -15z"/>
<path d="M2710 4985 c0 -10 7 -15 18 -13 21 4 19 22 -2 26 -10 2 -16 -3 -16
-13z"/>
<path d="M2890 4985 c0 -8 9 -15 20 -15 11 0 20 7 20 15 0 8 -9 15 -20 15 -11
0 -20 -7 -20 -15z"/>
<path d="M2990 4985 c0 -8 7 -15 15 -15 8 0 15 7 15 15 0 8 -7 15 -15 15 -8 0
-15 -7 -15 -15z"/>
<path d="M2350 4979 c0 -5 5 -7 10 -4 6 3 10 8 10 11 0 2 -4 4 -10 4 -5 0 -10
-5 -10 -11z"/>
<path d="M4616 4973 c-6 -14 -5 -15 5 -6 7 7 10 15 7 18 -3 3 -9 -2 -12 -12z"/>
<path d="M2577 4963 c-12 -11 -8 -23 8 -23 8 0 15 7 15 15 0 16 -12 20 -23 8z"/>
<path d="M2664 4959 c-10 -17 13 -36 27 -22 12 12 4 33 -11 33 -5 0 -12 -5
-16 -11z"/>
<path d="M2752 4953 c2 -10 10 -18 18 -18 8 0 16 8 18 18 2 12 -3 17 -18 17
-15 0 -20 -5 -18 -17z"/>
<path d="M2845 4960 c-8 -13 3 -30 20 -30 14 0 27 24 18 34 -10 9 -31 7 -38
-4z"/>
<path d="M2942 4954 c4 -21 22 -23 26 -1 2 10 -3 17 -13 17 -10 0 -15 -6 -13
-16z"/>
<path d="M4510 4966 c0 -2 8 -10 18 -17 15 -13 16 -12 3 4 -13 16 -21 21 -21
13z"/>
<path d="M7432 4950 c0 -14 2 -19 5 -12 2 6 2 18 0 25 -3 6 -5 1 -5 -13z"/>
<path d="M2485 4950 c3 -5 10 -10 16 -10 5 0 9 5 9 10 0 6 -7 10 -16 10 -8 0
-12 -4 -9 -10z"/>
<path d="M4355 4914 l-50 -45 74 36 c55 27 70 39 60 46 -23 14 -32 10 -84 -37z"/>
<path d="M4570 4940 c-23 -7 -23 -8 -3 -9 12 -1 25 4 28 9 3 6 5 10 3 9 -2 -1
-14 -5 -28 -9z"/>
<path d="M4630 4947 c0 -5 127 -97 135 -97 3 0 -22 23 -56 50 -54 43 -79 58
-79 47z"/>
<path d="M2625 4930 c-4 -6 -3 -16 3 -22 6 -6 12 -6 17 2 4 6 3 16 -3 22 -6 6
-12 6 -17 -2z"/>
<path d="M2710 4920 c0 -15 5 -20 18 -18 9 2 17 10 17 18 0 8 -8 16 -17 18
-13 2 -18 -3 -18 -18z"/>
<path d="M2800 4920 c0 -13 7 -20 20 -20 13 0 20 7 20 20 0 13 -7 20 -20 20
-13 0 -20 -7 -20 -20z"/>
<path d="M2894 4929 c-10 -17 13 -36 27 -22 12 12 4 33 -11 33 -5 0 -12 -5
-16 -11z"/>
<path d="M2995 4930 c-4 -6 -3 -16 3 -22 6 -6 12 -6 17 2 4 6 3 16 -3 22 -6 6
-12 6 -17 -2z"/>
<path d="M2260 4920 c0 -5 5 -10 10 -10 6 0 10 5 10 10 0 6 -4 10 -10 10 -5 0
-10 -4 -10 -10z"/>
<path d="M2350 4920 c0 -5 5 -10 10 -10 6 0 10 5 10 10 0 6 -4 10 -10 10 -5 0
-10 -4 -10 -10z"/>
<path d="M2440 4920 c0 -5 5 -10 10 -10 6 0 10 5 10 10 0 6 -4 10 -10 10 -5 0
-10 -4 -10 -10z"/>
<path d="M2530 4920 c0 -5 5 -10 10 -10 6 0 10 5 10 10 0 6 -4 10 -10 10 -5 0
-10 -4 -10 -10z"/>
<path d="M4472 4895 c-6 -14 -7 -25 -2 -25 9 0 25 39 18 46 -3 2 -10 -7 -16
-21z"/>
<path d="M4550 4901 c0 -14 -4 -20 -12 -15 -8 5 -9 -6 -5 -41 4 -26 8 -64 9
-84 0 -20 4 7 8 59 4 52 6 97 4 99 -2 2 -4 -6 -4 -18z"/>
<path d="M4806 4894 c-4 -14 -5 -29 -2 -31 3 -3 8 7 12 21 3 15 4 29 1 32 -2
3 -8 -7 -11 -22z"/>
<path d="M2664 4899 c-10 -17 13 -36 27 -22 12 12 4 33 -11 33 -5 0 -12 -5
-16 -11z"/>
<path d="M2757 4904 c-14 -15 -6 -34 14 -34 14 0 19 5 17 17 -3 18 -20 27 -31
17z"/>
<path d="M2844 4899 c-9 -15 11 -33 30 -26 9 4 13 13 10 22 -7 17 -30 20 -40
4z"/>
<path d="M2946 4903 c-12 -12 -6 -33 9 -33 8 0 15 6 15 14 0 17 -14 28 -24 19z"/>
<path d="M4590 4894 c8 -8 23 -20 34 -26 19 -10 18 -8 -3 16 -26 27 -53 37
-31 10z"/>
<path d="M2485 4890 c-3 -5 1 -10 10 -10 9 0 13 5 10 10 -3 6 -8 10 -10 10 -2
0 -7 -4 -10 -10z"/>
<path d="M2572 4888 c6 -18 28 -21 28 -4 0 9 -7 16 -16 16 -9 0 -14 -5 -12
-12z"/>
<path d="M3035 4891 c-3 -5 -1 -12 5 -16 5 -3 10 1 10 9 0 18 -6 21 -15 7z"/>
<path d="M2803 4864 c-8 -21 13 -42 28 -27 13 13 5 43 -11 43 -6 0 -13 -7 -17
-16z"/>
<path d="M2256 4861 c-4 -5 -2 -12 3 -15 5 -4 12 -2 15 3 4 5 2 12 -3 15 -5 4
-12 2 -15 -3z"/>
<path d="M2530 4855 c0 -8 5 -15 10 -15 6 0 10 7 10 15 0 8 -4 15 -10 15 -5 0
-10 -7 -10 -15z"/>
<path d="M2620 4855 c0 -8 7 -15 15 -15 8 0 15 7 15 15 0 8 -7 15 -15 15 -8 0
-15 -7 -15 -15z"/>
<path d="M2710 4855 c0 -10 7 -15 18 -13 21 4 19 22 -2 26 -10 2 -16 -3 -16
-13z"/>
<path d="M2890 4855 c0 -8 9 -15 20 -15 11 0 20 7 20 15 0 8 -9 15 -20 15 -11
0 -20 -7 -20 -15z"/>
<path d="M2990 4855 c0 -8 7 -15 15 -15 8 0 15 7 15 15 0 8 -7 15 -15 15 -8 0
-15 -7 -15 -15z"/>
<path d="M2350 4849 c0 -5 5 -7 10 -4 6 3 10 8 10 11 0 2 -4 4 -10 4 -5 0 -10
-5 -10 -11z"/>
<path d="M2577 4833 c-12 -11 -8 -23 8 -23 8 0 15 7 15 15 0 16 -12 20 -23 8z"/>
<path d="M2664 4829 c-10 -17 13 -36 27 -22 12 12 4 33 -11 33 -5 0 -12 -5
-16 -11z"/>
<path d="M2752 4823 c2 -10 10 -18 18 -18 8 0 16 8 18 18 2 12 -3 17 -18 17
-15 0 -20 -5 -18 -17z"/>
<path d="M2845 4830 c-8 -13 3 -30 20 -30 14 0 27 24 18 34 -10 9 -31 7 -38
-4z"/>
<path d="M2942 4824 c4 -21 22 -23 26 -1 2 10 -3 17 -13 17 -10 0 -15 -6 -13
-16z"/>
<path d="M3035 4830 c-3 -5 1 -10 9 -10 9 0 16 5 16 10 0 6 -4 10 -9 10 -6 0
-13 -4 -16 -10z"/>
<path d="M2300 4820 c0 -5 5 -10 10 -10 6 0 10 5 10 10 0 6 -4 10 -10 10 -5 0
-10 -4 -10 -10z"/>
<path d="M2485 4820 c3 -5 10 -10 16 -10 5 0 9 5 9 10 0 6 -7 10 -16 10 -8 0
-12 -4 -9 -10z"/>
<path d="M4712 4795 c0 -16 2 -22 5 -12 2 9 2 23 0 30 -3 6 -5 -1 -5 -18z"/>
<path d="M2625 4800 c-4 -6 -3 -16 3 -22 6 -6 12 -6 17 2 4 6 3 16 -3 22 -6 6
-12 6 -17 -2z"/>
<path d="M2710 4790 c0 -15 5 -20 18 -18 9 2 17 10 17 18 0 8 -8 16 -17 18
-13 2 -18 -3 -18 -18z"/>
<path d="M2800 4790 c0 -13 7 -20 20 -20 13 0 20 7 20 20 0 13 -7 20 -20 20
-13 0 -20 -7 -20 -20z"/>
<path d="M2894 4799 c-10 -17 13 -36 27 -22 12 12 4 33 -11 33 -5 0 -12 -5
-16 -11z"/>
<path d="M2995 4800 c-4 -6 -3 -16 3 -22 6 -6 12 -6 17 2 4 6 3 16 -3 22 -6 6
-12 6 -17 -2z"/>
<path d="M3211 4799 c-82 -6 -107 -11 -114 -25 -5 -9 -25 -34 -43 -54 -38 -42
-41 -50 -17 -50 15 0 332 126 342 136 5 5 -35 3 -168 -7z"/>
<path d="M3545 4800 c-105 -7 -116 -10 -253 -67 -94 -40 -138 -62 -127 -67 9
-3 84 -6 167 -6 l151 0 66 49 c54 40 127 106 110 99 -2 -1 -53 -4 -114 -8z"/>
<path d="M2250 4790 c0 -5 7 -10 15 -10 8 0 15 5 15 10 0 6 -7 10 -15 10 -8 0
-15 -4 -15 -10z"/>
<path d="M2440 4790 c0 -5 5 -10 10 -10 6 0 10 5 10 10 0 6 -4 10 -10 10 -5 0
-10 -4 -10 -10z"/>
<path d="M2530 4790 c0 -5 5 -10 10 -10 6 0 10 5 10 10 0 6 -4 10 -10 10 -5 0
-10 -4 -10 -10z"/>
<path d="M4852 4764 c15 -15 30 -26 33 -23 2 3 -10 16 -28 29 l-32 23 27 -29z"/>
<path d="M2664 4769 c-10 -17 13 -36 27 -22 12 12 4 33 -11 33 -5 0 -12 -5
-16 -11z"/>
<path d="M2757 4774 c-14 -15 -6 -34 14 -34 14 0 19 5 17 17 -3 18 -20 27 -31
17z"/>
<path d="M2844 4769 c-9 -15 11 -33 30 -26 9 4 13 13 10 22 -7 17 -30 20 -40
4z"/>
<path d="M2946 4773 c-12 -12 -6 -33 9 -33 8 0 15 6 15 14 0 17 -14 28 -24 19z"/>
<path d="M2300 4760 c0 -5 5 -10 10 -10 6 0 10 5 10 10 0 6 -4 10 -10 10 -5 0
-10 -4 -10 -10z"/>
<path d="M2570 4760 c0 -5 7 -10 15 -10 8 0 15 5 15 10 0 6 -7 10 -15 10 -8 0
-15 -4 -15 -10z"/>
<path d="M3035 4760 c-3 -5 -2 -10 4 -10 5 0 13 5 16 10 3 6 2 10 -4 10 -5 0
-13 -4 -16 -10z"/>
<path d="M4370 4745 c-6 -8 -10 -19 -8 -26 2 -6 9 0 16 15 13 29 10 33 -8 11z"/>
<path d="M2805 4740 c-3 -5 3 -10 15 -10 12 0 18 5 15 10 -3 6 -10 10 -15 10
-5 0 -12 -4 -15 -10z"/>
<path d="M2530 4725 c0 -8 5 -15 10 -15 6 0 10 7 10 15 0 8 -4 15 -10 15 -5 0
-10 -7 -10 -15z"/>
<path d="M2898 4733 c6 -2 18 -2 25 0 6 3 1 5 -13 5 -14 0 -19 -2 -12 -5z"/>
<path d="M2998 4733 c7 -3 16 -2 19 1 4 3 -2 6 -13 5 -11 0 -14 -3 -6 -6z"/>
<path d="M4697 4681 c-5 -35 -6 -65 -3 -68 8 -8 18 60 14 98 -2 26 -5 20 -11
-30z"/>
<path d="M2620 4720 c0 -5 7 -10 15 -10 8 0 15 5 15 10 0 6 -7 10 -15 10 -8 0
-15 -4 -15 -10z"/>
<path d="M2718 4713 c7 -3 16 -2 19 1 4 3 -2 6 -13 5 -11 0 -14 -3 -6 -6z"/>
<path d="M2575 4700 c-3 -5 1 -10 9 -10 9 0 16 5 16 10 0 6 -4 10 -9 10 -6 0
-13 -4 -16 -10z"/>
<path d="M2667 4704 c-13 -13 -7 -24 14 -24 11 0 19 5 17 12 -5 14 -22 21 -31
12z"/>
<path d="M2752 4693 c2 -10 10 -18 18 -18 8 0 16 8 18 18 2 12 -3 17 -18 17
-15 0 -20 -5 -18 -17z"/>
<path d="M2844 4695 c-4 -8 -16 -15 -28 -16 -20 0 -20 -1 -1 -8 11 -5 21 -5
23 0 2 4 10 5 19 2 16 -6 35 15 27 29 -9 13 -34 9 -40 -7z"/>
<path d="M4462 4669 c-12 -21 -19 -39 -14 -39 8 0 45 70 40 76 -2 1 -14 -15
-26 -37z"/>
<path d="M2942 4689 c2 -6 8 -10 13 -10 5 0 11 4 13 10 2 6 -4 11 -13 11 -9 0
-15 -5 -13 -11z"/>
<path d="M4756 4680 c7 -28 12 -35 18 -29 2 2 -2 15 -10 29 l-15 25 7 -25z"/>
<path d="M2895 4670 c-3 -5 3 -10 15 -10 12 0 18 5 15 10 -3 6 -10 10 -15 10
-5 0 -12 -4 -15 -10z"/>
<path d="M4794 4614 c-18 -14 -18 -15 4 -4 12 6 22 13 22 15 0 8 -5 6 -26 -11z"/>
<path d="M2912 3068 c-12 -51 -22 -99 -22 -105 0 -9 17 -13 50 -13 28 0 50 3
50 6 0 18 -43 190 -49 197 -4 4 -17 -35 -29 -85z"/>
<path d="M4150 3267 c-50 -25 -65 -77 -65 -237 0 -160 11 -207 52 -240 48 -37
111 -17 133 43 17 46 24 261 11 332 -8 46 -18 66 -41 88 -33 30 -52 33 -90 14z"/>
<path d="M4980 3267 c-50 -25 -65 -77 -65 -237 0 -160 11 -207 52 -240 48 -37
111 -17 133 43 17 46 24 261 11 332 -8 46 -18 66 -41 88 -33 30 -52 33 -90 14z"/>
<path d="M5810 3267 c-50 -25 -65 -77 -65 -237 0 -160 11 -207 52 -240 48 -37
111 -17 133 43 17 46 24 261 11 332 -8 46 -18 66 -41 88 -33 30 -52 33 -90 14z"/>
<path d="M6180 3170 l0 -112 66 4 c58 4 70 8 90 32 35 40 33 105 -5 148 -24
27 -36 32 -90 36 l-61 4 0 -112z"/>
</g>
</svg>
